<svg width="118" height="40" viewBox="0 0 118 40" fill="none" xmlns="http://www.w3.org/2000/svg">
<g clip-path="url(#clip0_19690_101360)">
<g clip-path="url(#clip1_19690_101360)">
<path fill-rule="evenodd" clip-rule="evenodd" d="M36.0289 0.24945V5.59406C36.0289 6.14146 35.7999 6.66896 35.4018 7.04716L0.248818 40.0504C0.159244 40.14 0 40.0703 0 39.9409V34.5963C0 34.0489 0.228913 33.5214 0.627022 33.1432L14.7798 19.8563L3.1152 8.92823C3.01568 8.83865 3.07539 8.66945 3.21473 8.66945H9.03707C9.54466 8.66945 10.0323 8.85856 10.4006 9.2069L18.2732 16.5819L35.78 0.13997C35.8696 0.0503952 36.0289 0.120064 36.0289 0.24945ZM23.4287 21.5781L20.1443 24.6635C20.0846 24.7232 20.0846 24.8127 20.1244 24.8824L28.8231 33.0138C29.1913 33.3522 29.679 33.5413 30.1767 33.5413H36.0388C36.1682 33.5413 36.2279 33.382 36.1383 33.2925L23.6178 21.5781C23.5681 21.5284 23.4785 21.5284 23.4287 21.5781Z" fill="white"/>
<path d="M60.8708 8.70898H45.9318C42.1896 8.70898 39.1639 11.7346 39.1639 15.4768V26.813C39.1639 30.5552 42.1896 33.5808 45.9318 33.5808H60.8708C60.9505 33.5808 61.0102 33.5211 61.0102 33.4415V28.9429C61.0102 28.8632 60.9505 28.8035 60.8708 28.8035H45.9318C44.837 28.8035 43.9412 27.9078 43.9412 26.813V15.4768C43.9412 14.382 44.837 13.4863 45.9318 13.4863H60.8708C60.9505 13.4863 61.0102 13.4266 61.0102 13.347V8.84832C61.0102 8.7687 60.9505 8.70898 60.8708 8.70898Z" fill="white"/>
<path d="M70.4254 8.69922H65.9268C65.8472 8.69922 65.7875 8.75894 65.7875 8.83856V33.4417C65.7875 33.5213 65.8472 33.581 65.9268 33.581H70.4254C70.5051 33.581 70.5648 33.5213 70.5648 33.4417V8.83856C70.5648 8.75894 70.5051 8.69922 70.4254 8.69922Z" fill="white"/>
<path d="M70.4254 0.736328H65.9268C65.8472 0.736328 65.7875 0.796044 65.7875 0.875666V4.77713C65.7875 4.85676 65.8472 4.91647 65.9268 4.91647H70.4254C70.5051 4.91647 70.5648 4.85676 70.5648 4.77713V0.875666C70.5648 0.796044 70.5051 0.736328 70.4254 0.736328Z" fill="white"/>
<path d="M88.6091 8.69907H80.1493V0.846369C80.1493 0.766748 80.0896 0.707031 80.01 0.707031H75.5113C75.4317 0.707031 75.372 0.766748 75.372 0.846369V26.813C75.372 30.5553 78.3976 33.5809 82.1399 33.5809H88.6091C88.6888 33.5809 88.7485 33.5212 88.7485 33.4415V28.9429C88.7485 28.8633 88.6888 28.8036 88.6091 28.8036H82.1399C81.0451 28.8036 80.1493 27.9078 80.1493 26.813V13.4764H88.6091C88.6888 13.4764 88.7485 13.4167 88.7485 13.337V8.83841C88.7485 8.75879 88.6888 8.69907 88.6091 8.69907Z" fill="white"/>
<path d="M115.75 23.5284V15.4866C115.75 11.7444 112.725 8.71875 108.982 8.71875H98.6315C94.8893 8.71875 91.8636 11.7444 91.8636 15.4866V26.8029C91.8636 30.5451 94.8893 33.5707 98.6315 33.5707H115.611C115.69 33.5707 115.75 33.511 115.75 33.4314V28.9327C115.75 28.8531 115.69 28.7934 115.611 28.7934H98.6315C97.5367 28.7934 96.641 27.8977 96.641 26.8029V23.8071C96.641 23.7275 96.7007 23.6677 96.7803 23.6677H115.611C115.69 23.6677 115.75 23.608 115.75 23.5284ZM96.641 15.4866C96.641 14.3918 97.5367 13.4961 98.6315 13.4961H108.982C110.077 13.4961 110.973 14.3918 110.973 15.4866V18.6814C110.973 18.761 110.913 18.8208 110.834 18.8208H96.7803C96.7007 18.8208 96.641 18.761 96.641 18.6814V15.4866Z" fill="white"/>
</g>
</g>
<defs>
<clipPath id="clip0_19690_101360">
<rect width="117.214" height="40" fill="white"/>
</clipPath>
<clipPath id="clip1_19690_101360">
<rect width="115.821" height="40.0995" fill="white"/>
</clipPath>
</defs>
</svg>
